# Blender3D v243 OBJ File: frisbee.blend
# www.blender3d.org
o Cube
v 1.000000 1.000000 -1.000000
v 1.000000 -1.000000 -1.000000
v -1.000000 -1.000000 -1.000000
v -1.000000 1.000000 -1.000000
v 1.000001 1.000000 2.405931
v 0.999999 -1.000001 2.405931
v -1.000000 -1.000000 2.405931
v -1.000000 1.000000 2.405931
v 1.000001 0.999999 4.782547
v -1.000000 1.000000 4.782546
v -1.000000 -1.000000 4.782547
v 1.000000 -1.000001 4.782547
v 0.086117 -0.086118 7.715214
v 0.086118 0.086117 7.715213
v -0.086117 -0.086118 7.715213
v -0.086117 0.086117 7.715213
v 0.086117 0.086118 8.811798
v -0.086118 0.086118 8.811798
v -0.086118 -0.086117 8.811798
v 0.086117 -0.086117 8.811798
v 2.000000 0.100000 1.000000
v 2.000000 0.100000 -1.000000
v 2.000000 -0.100000 -1.000000
v 1.999999 -0.100000 1.000000
v -0.100001 -2.000000 1.000000
v -0.100001 -2.000000 -1.000000
v 0.100000 -2.000000 -1.000000
v 0.099999 -2.000001 1.000000
v -2.000000 0.100001 -1.000000
v -2.000000 0.100000 1.000000
v -2.000000 -0.099999 1.000000
v -2.000000 -0.099999 -1.000000
v -0.100000 2.000000 -1.000000
v -0.100000 2.000000 1.000000
v 0.100001 1.999999 1.000000
v 0.100001 2.000000 -1.000000
v 4.000000 0.099993 -1.000000
v 4.000000 -0.100007 -1.000000
v 4.000000 0.099993 -0.061089
v 4.000000 -0.100007 -0.061089
v -0.099995 4.000000 -0.999999
v 0.100005 4.000000 -0.999999
v -0.099995 4.000000 -0.061088
v 0.100005 3.999999 -0.061088
v -4.000000 0.100005 -1.000000
v -4.000000 -0.099995 -1.000000
v -4.000000 0.100005 -0.061090
v -4.000000 -0.099995 -0.061090
v -0.100007 -4.000000 -0.984018
v 0.099993 -4.000000 -0.984018
v -0.100007 -4.000000 -0.045107
v 0.099993 -4.000001 -0.045107
vn -0.000006 -1.000000 -0.000001
vn -0.000000 -1.000000 0.000000
vn -1.000000 0.000003 0.000000
vn 1.000000 -0.000003 0.000000
vn -0.000003 -0.463133 0.886289
vn -0.000004 -0.463133 0.886289
vn -0.000000 -0.007991 -0.999968
vn -1.000000 0.000002 -0.000001
vn -1.000000 0.000000 0.000000
vn 0.000002 1.000000 0.000000
vn -0.000002 -1.000000 -0.000000
vn -0.468669 0.000001 0.883374
vn -0.468669 0.000002 0.883374
vn 0.000000 -0.000000 -1.000000
vn 0.000004 1.000000 0.000001
vn 0.000002 1.000000 0.000001
vn -1.000000 0.000002 -0.000000
vn 1.000000 -0.000002 -0.000000
vn 0.000001 0.468669 0.883374
vn 0.000002 0.468669 0.883374
vn -0.000001 0.000000 -1.000000
vn 1.000000 -0.000000 -0.000001
vn 1.000000 -0.000005 0.000001
vn 0.000003 1.000000 0.000000
vn -0.000003 -1.000000 -0.000000
vn 0.468669 -0.000003 0.883374
vn 0.468669 -0.000002 0.883374
vn 0.000000 -0.000001 -1.000000
vn 0.000000 0.814893 0.579611
vn 0.000002 0.814892 0.579612
vn 0.743294 0.668965 -0.000000
vn -0.743294 0.668965 0.000000
vn -0.814893 0.000000 0.579611
vn -0.814893 0.000002 0.579612
vn -0.668965 -0.743294 -0.000000
vn -0.668965 0.743294 0.000000
vn -0.000000 -0.814893 0.579611
vn -0.000005 -0.814892 0.579613
vn 0.743294 -0.668965 0.000000
vn -0.743294 -0.668965 -0.000000
vn 0.814893 -0.000001 0.579611
vn 0.814892 -0.000005 0.579613
vn 0.668965 -0.743294 0.000000
vn 0.668965 0.743294 -0.000000
vn 0.000000 0.000000 1.000000
vn 1.000000 -0.000001 0.000001
vn 1.000000 0.000001 0.000000
vn -0.000001 -1.000000 0.000000
vn -1.000000 -0.000001 -0.000000
vn -1.000000 0.000000 -0.000001
vn 0.000001 1.000000 -0.000000
vn -0.000000 1.000000 -0.000000
vn 0.000000 0.954718 0.297511
vn 0.000001 0.954719 0.297511
vn -0.954718 0.000000 0.297511
vn -0.954718 -0.000001 0.297512
vn -0.000001 -0.954718 0.297511
vn 0.954718 -0.000000 0.297511
vn 1.000000 -0.000001 -0.000000
usemtl (null)
usemtl (null)
s 1
f 50//1 52//1 51//1
f 50//2 51//2 49//2
f 25//3 26//3 51//3
f 26//3 49//3 51//3
f 27//4 28//4 52//4
f 27//4 52//4 50//4
f 28//5 25//5 51//5
f 28//6 51//6 52//6
f 26//7 27//7 50//7
f 26//7 50//7 49//7
f 46//8 48//8 47//8
f 46//9 47//9 45//9
f 30//10 29//10 47//10
f 29//10 45//10 47//10
f 32//11 31//11 48//11
f 32//11 48//11 46//11
f 31//12 30//12 48//12
f 30//13 47//13 48//13
f 29//14 32//14 46//14
f 29//14 46//14 45//14
f 41//15 43//15 44//15
f 41//16 44//16 42//16
f 33//17 34//17 43//17
f 33//17 43//17 41//17
f 35//18 36//18 44//18
f 36//18 42//18 44//18
f 34//19 35//19 44//19
f 34//20 44//20 43//20
f 36//14 33//14 41//14
f 36//21 41//21 42//21
f 37//22 39//22 38//22
f 39//23 40//23 38//23
f 22//24 21//24 39//24
f 22//24 39//24 37//24
f 24//25 23//25 40//25
f 23//25 38//25 40//25
f 21//26 24//26 40//26
f 21//27 40//27 39//27
f 23//14 22//14 37//14
f 23//28 37//28 38//28
f 1//14 4//14 33//14
f 1//14 33//14 36//14
f 8//29 5//29 35//29
f 8//30 35//30 34//30
f 5//31 1//31 35//31
f 1//31 36//31 35//31
f 4//32 8//32 34//32
f 4//32 34//32 33//32
f 4//14 3//14 29//14
f 3//14 32//14 29//14
f 7//33 8//33 30//33
f 7//34 30//34 31//34
f 3//35 7//35 31//35
f 3//35 31//35 32//35
f 8//36 4//36 30//36
f 4//36 29//36 30//36
f 3//14 2//14 27//14
f 3//14 27//14 26//14
f 6//37 7//37 25//37
f 6//38 25//38 28//38
f 2//39 6//39 28//39
f 2//39 28//39 27//39
f 7//40 3//40 25//40
f 3//40 26//40 25//40
f 2//14 1//14 22//14
f 2//14 22//14 23//14
f 5//41 6//41 24//41
f 5//42 24//42 21//42
f 6//43 2//43 24//43
f 2//43 23//43 24//43
f 1//44 5//44 21//44
f 1//44 21//44 22//44
f 17//45 18//45 19//45
f 17//45 19//45 20//45
f 13//46 14//46 17//46
f 13//47 17//47 20//47
f 15//2 13//2 20//2
f 15//48 20//48 19//48
f 16//49 15//49 18//49
f 15//50 19//50 18//50
f 14//51 16//51 18//51
f 14//52 18//52 17//52
f 9//53 10//53 14//53
f 10//54 16//54 14//54
f 10//55 11//55 16//55
f 11//56 15//56 16//56
f 11//57 12//57 15//57
f 12//57 13//57 15//57
f 12//58 9//58 14//58
f 12//58 14//58 13//58
f 6//59 5//59 9//59
f 6//59 9//59 12//59
f 7//2 6//2 11//2
f 6//48 12//48 11//48
f 8//9 7//9 10//9
f 7//9 11//9 10//9
f 5//52 8//52 10//52
f 5//52 10//52 9//52
f 1//14 2//14 3//14
f 1//14 3//14 4//14
