# Blender3D v243 OBJ File: widget.blend
# www.blender3d.org
o Curve.001_Mesh
v -0.114161 -0.393822 0.066784
v -0.297329 -0.360350 0.025763
v 0.752143 -0.248402 -0.023729
v -0.021123 0.452784 0.038966
v 0.674698 0.021657 -0.063008
v 0.319334 -0.426861 0.019208
v -0.439952 -0.178473 -0.066585
v 0.176125 0.464481 -0.054900
v 0.304831 0.353485 -0.120670
v -0.490106 0.202586 -0.011942
v -0.936074 -0.010262 -0.049378
v 0.071734 -0.501127 -0.033358
v 1.085506 0.070720 -0.049467
v 0.530304 0.087268 -0.108385
v -0.263204 0.355831 0.023854
v 0.689457 -0.021239 -0.108961
v 0.414871 0.222197 -0.034299
v 0.269546 0.234232 -0.212027
v 0.554366 -0.370172 -0.100365
v -0.418423 -0.170456 0.004791
v -0.364323 -0.056246 -0.174771
v -0.485804 0.247565 -0.075713
v -0.389127 -0.106802 0.031927
v -0.918644 -0.046923 -0.049335
v 0.127904 0.321607 -0.231427
v 0.249919 0.163464 0.083208
v -0.084195 0.268645 0.088117
v 0.535172 -0.164541 -0.149039
v 0.718577 -0.190333 -0.111940
v -0.141789 -0.476779 -0.118906
v -0.646444 0.048372 -0.057661
v -0.519529 0.028416 -0.019939
v -0.516733 -0.025111 -0.082298
v 0.693535 -0.043752 -0.009220
v 0.391141 -0.322239 0.033278
v -0.649244 0.064334 -0.074845
v 0.484156 -0.313337 -0.150567
v -0.918078 -0.048089 -0.061559
v 1.060122 0.111718 -0.063932
v -0.410963 -0.158458 -0.141035
v -0.009765 0.486859 -0.028818
v -0.514884 -0.021519 -0.030141
v -0.486574 0.211924 -0.104421
v -0.015845 0.472811 -0.143056
v -0.335877 0.075396 0.029912
v -0.659500 0.148492 -0.076010
v 0.077107 -0.491178 -0.127425
v -0.935685 -0.011057 -0.061820
v 0.314718 -0.458472 -0.099307
v -0.250042 0.395844 -0.036324
v -0.811227 0.097808 -0.044258
v -0.104753 -0.366405 -0.213468
v 0.298187 0.325514 0.035861
v 0.228822 0.103569 -0.233359
v -0.240811 -0.199229 -0.223670
v -0.144183 -0.482111 -0.030811
v 0.871904 -0.138134 -0.030261
v -0.252235 0.390374 -0.102503
v 0.123122 -0.327204 -0.213842
v 0.153073 0.395483 0.068887
v -0.307324 0.205039 -0.177853
v -0.247633 -0.215337 0.073829
v -0.040575 0.396694 -0.204267
v 0.932996 -0.109865 -0.045945
v 0.547318 -0.356447 -0.003580
v 0.171201 0.448613 0.015595
v 0.548648 -0.381245 -0.043109
v 0.519445 -0.001533 0.023286
v 0.857679 0.010747 -0.041983
v -0.782312 0.036839 -0.045128
v 0.691951 -0.144141 -0.012877
v -0.783054 0.031152 -0.065812
v 0.910946 -0.063814 -0.082426
v 0.518477 0.079660 0.002749
v 0.677826 0.004846 -0.021622
v -0.173953 0.004184 0.068424
v 0.523398 0.101903 -0.033402
v 0.075702 0.170908 -0.252535
v -0.133874 -0.451451 0.031642
v -0.667641 0.162054 -0.057699
v 1.060859 0.110557 -0.047323
v 0.079155 -0.473128 0.022564
v -0.485650 0.241527 -0.029958
v 0.860472 0.011067 -0.075049
v -0.272288 0.336387 -0.155408
v 0.533483 0.007778 -0.144537
v -0.058978 -0.236764 -0.240068
v -0.282685 -0.317722 -0.186569
v 1.085076 0.071395 -0.061937
v 0.121716 -0.327718 0.069109
v 0.172876 0.455430 -0.129085
v -0.813447 0.093978 -0.068284
v -0.128073 -0.435813 -0.176463
v -0.043177 0.388052 0.074577
v 0.875961 -0.005101 -0.033682
v 0.091929 -0.429625 -0.182393
v 0.290507 0.307799 -0.177046
v 0.331586 -0.410219 -0.151653
v -0.662447 0.151722 -0.038084
v 0.313033 -0.462703 -0.037963
v 0.093797 -0.420495 0.053936
v -0.303837 -0.379882 -0.129029
v 0.204430 -0.129608 0.060538
v -0.307102 -0.388949 -0.031633
v -0.079912 -0.292139 0.084047
v 0.001437 -0.052004 0.077950
v -0.097173 0.242302 -0.238066
v 0.761083 -0.262673 -0.061587
v 0.935985 -0.102416 -0.071827
v -0.297641 0.245220 0.040844
v -0.509514 0.058711 -0.107778
v 0.414886 0.215988 -0.106144
v 0.156133 0.405557 -0.193237
v -0.647805 0.059016 -0.040161
v -0.279152 -0.307498 0.057909
v 0.307165 0.359301 -0.028141
v 0.280621 0.263326 0.069683
v 0.112409 0.270707 0.100066
v 0.756066 -0.238925 -0.095393
vn -0.492630 0.539201 0.683035
vn -0.391675 0.660421 0.640614
vn -0.350200 0.487442 -0.799799
vn -0.467910 0.499710 -0.728904
vn 0.380108 -0.731407 -0.566149
vn 0.376385 -0.430250 -0.820460
vn 0.585803 -0.804621 -0.096835
vn 0.192480 -0.001526 -0.981292
vn 0.225135 -0.002045 -0.974303
vn 0.224738 -0.210059 -0.951476
vn -0.165685 -0.323160 -0.931700
vn -0.363689 -0.052858 -0.929991
vn -0.677572 -0.552293 -0.485611
vn 0.313120 0.949492 -0.019440
vn -0.169744 0.886624 0.430158
vn -0.059267 0.738182 -0.671957
vn 0.339946 0.803766 0.488205
vn 0.705283 0.692648 0.150853
vn 0.435957 0.899503 0.027772
vn 0.202826 0.571764 0.794916
vn 0.057466 0.165990 0.984436
vn -0.263314 0.175756 0.948546
vn -0.368114 0.588000 0.720206
vn -0.451979 0.736015 0.503922
vn -0.381359 0.505600 -0.773888
vn -0.178716 0.130284 -0.975219
vn -0.340739 0.137791 -0.929991
vn -0.290780 -0.060671 0.954833
vn -0.371166 -0.042116 0.927580
vn -0.238258 0.030122 0.970702
vn -0.320688 -0.199286 0.925962
vn -0.149144 -0.001709 0.988800
vn 0.225105 0.332469 -0.915830
vn 0.139531 0.018311 -0.990020
vn 0.204016 -0.062471 -0.976959
vn -0.009491 -0.085665 -0.996277
vn 0.116062 -0.214240 -0.969848
vn 0.356243 0.198431 -0.913053
vn -0.003357 -0.027894 0.999603
vn 0.119816 -0.040925 0.991943
vn 0.139409 -0.028230 0.989807
vn 0.669790 0.680410 -0.297311
vn 0.349315 0.847987 -0.398572
vn -0.013428 -0.065279 0.997772
vn -0.275002 0.674276 -0.685324
vn 0.112094 -0.385754 0.915738
vn -0.145726 0.035920 0.988647
vn 0.053102 0.083407 0.995086
vn -0.132817 0.305155 0.942961
vn -0.444166 0.835047 -0.324595
vn -0.173833 0.869778 -0.461745
vn 0.417341 -0.718863 0.555864
vn 0.758507 0.644795 0.094119
vn 0.606250 0.668905 -0.430097
vn 0.752495 0.616718 -0.231025
vn 0.445936 -0.314554 -0.837947
vn 0.067721 -0.365642 0.928251
vn -0.101688 -0.317118 0.942900
vn -0.222114 -0.685263 0.693564
vn -0.377056 0.004639 -0.926145
vn -0.638173 -0.248329 -0.728721
vn -0.187628 -0.617634 -0.763726
vn 0.072512 -0.890316 -0.449477
vn -0.239082 -0.923032 -0.301370
vn 0.231391 0.526261 -0.818201
vn 0.322764 0.214942 -0.921720
vn 0.105441 0.214881 -0.970916
vn 0.546770 0.480667 -0.685537
vn -0.872341 -0.488632 0.015351
vn -0.646657 -0.507279 0.569597
vn 0.578356 -0.517777 -0.630360
vn -0.093753 0.726035 0.681204
vn -0.093844 0.979217 0.179632
vn 0.637776 -0.632710 0.439192
vn -0.256355 0.105655 0.960784
vn -0.489731 0.788171 -0.372692
vn 0.598315 0.550249 0.582415
vn 0.647572 0.732871 0.208594
vn 0.205939 -0.550676 -0.808893
vn 0.273812 -0.902829 -0.331462
vn -0.361217 0.317362 -0.876797
vn 0.216102 -0.427320 -0.877865
vn -0.121860 0.457076 -0.881008
vn -0.404675 -0.341533 -0.848262
vn -0.083163 -0.297861 -0.950957
vn -0.275307 -0.088473 -0.957244
vn -0.134739 -0.483139 0.865078
vn 0.155858 0.081820 0.984375
vn -0.152135 0.031953 0.987823
vn 0.043031 -0.979492 0.196783
vn 0.238289 -0.944243 0.227149
vn 0.188116 -0.637440 0.747124
vn 0.125217 0.010285 0.992065
vn 0.197211 -0.115238 0.973540
vn 0.541795 -0.417920 0.729209
vn 0.252846 0.107212 0.961516
vn -0.568957 -0.508438 0.646321
vn -0.680654 -0.321116 0.658437
vn 0.443281 -0.588610 0.676015
vn 0.283273 -0.529130 0.799829
vn 0.145726 -0.107395 0.983459
vn -0.629048 -0.662465 -0.406659
vn -0.297586 -0.933409 0.200323
vn -0.443770 0.886135 0.133396
vn -0.261177 0.351085 -0.899167
vn -0.307382 -0.950133 -0.052034
vn 0.192053 0.433271 0.880520
vn 0.317515 0.205756 0.925626
vn 0.263894 -0.911832 -0.314402
vn -0.647084 -0.725333 0.234748
vn 0.411725 -0.891201 0.190344
vn 0.067904 -0.499832 -0.863430
vn -0.421644 0.905240 -0.052370
vn 0.084567 -0.111118 0.990173
vn -0.220313 0.353404 0.909116
vn 0.037690 0.041261 -0.998413
vn 0.495376 0.519303 0.696310
vn 0.027558 -0.774621 0.631794
vn -0.207068 0.507035 0.836665
usemtl (null)
usemtl (null)
s 1
f 11//1 51//2 92//3
s 1
f 11//1 92//3 48//4
s 1
f 19//5 119//6 108//7
s 1
f 54//8 28//9 37//10
s 1
f 36//11 111//12 33//13
s 1
f 5//14 69//15 84//16
s 1
f 66//17 116//18 8//19
s 1
f 75//20 95//21 69//15
s 1
f 10//22 15//23 83//24
s 1
f 85//25 107//26 61//27
s 1
f 32//28 23//29 45//30
s 1
f 23//29 115//31 62//32
s 1
f 16//33 73//34 29//35
s 1
f 87//36 54//8 59//37
s 1
f 86//38 16//33 28//9
s 1
f 106//39 103//40 26//41
s 1
f 8//19 9//42 91//43
s 1
f 16//33 84//16 73//34
s 1
f 105//44 103//40 106//39
s 1
f 84//16 39//45 73//34
s 1
f 11//1 70//46 51//2
s 1
f 27//47 118//48 94//49
s 1
f 58//50 44//51 85//25
s 1
f 24//52 70//46 11//1
s 1
f 17//53 14//54 112//55
s 1
f 73//34 39//45 89//56
s 1
f 75//20 69//15 5//14
s 1
f 101//57 1//58 79//59
s 1
f 111//12 21//60 40//61
s 1
f 27//47 106//39 118//48
s 1
f 93//62 47//63 30//64
s 1
f 116//18 17//53 112//55
s 1
f 113//65 18//66 25//67
s 1
f 91//43 9//42 97//68
s 1
f 33//13 7//69 42//70
s 1
f 73//34 89//56 109//71
s 1
f 4//72 66//17 41//73
s 1
f 108//7 109//71 64//74
s 1
f 110//75 94//49 15//23
s 1
f 28//9 16//33 29//35
s 1
f 119//6 109//71 108//7
s 1
f 22//76 58//50 85//25
s 1
f 53//77 17//53 116//18
s 1
f 17//53 77//78 14//54
s 1
f 41//73 66//17 8//19
s 1
f 98//79 37//10 19//5
s 1
f 24//52 72//80 70//46
s 1
f 43//81 61//27 111//12
s 1
f 37//10 119//6 19//5
s 1
f 38//82 72//80 24//52
s 1
f 63//83 25//67 107//26
s 1
f 97//68 86//38 18//66
s 1
f 88//84 52//85 93//62
s 1
f 107//26 87//36 55//86
s 1
f 114//87 42//70 32//28
s 1
f 15//23 94//49 4//72
s 1
f 34//88 95//21 75//20
s 1
f 62//32 106//39 76//89
s 1
f 42//70 23//29 32//28
s 1
f 25//67 18//66 54//8
s 1
f 12//90 100//91 6//92
s 1
f 22//76 85//25 43//81
s 1
f 21//60 107//26 55//86
s 1
f 18//66 86//38 54//8
s 1
f 62//32 105//44 106//39
s 1
f 103//40 71//93 34//88
s 1
f 85//25 63//83 107//26
s 1
f 57//94 13//95 95//21
s 1
f 106//39 26//41 118//48
s 1
f 103//40 68//96 26//41
s 1
f 76//89 106//39 27//47
s 1
f 7//69 2//97 20//98
s 1
f 3//99 64//74 57//94
s 1
f 65//100 57//94 35//101
s 1
f 38//82 92//3 72//80
s 1
f 102//102 30//64 56//103
s 1
f 59//37 37//10 98//79
s 1
f 48//4 92//3 38//82
s 1
f 22//76 50//104 58//50
s 1
f 23//29 76//89 45//30
s 1
f 61//27 107//26 21//60
s 1
f 46//105 111//12 36//11
s 1
f 31//106 42//70 114//87
s 1
f 53//77 77//78 17//53
s 1
f 60//107 117//108 53//77
s 1
f 98//79 19//5 49//109
s 1
f 104//110 79//59 2//97
s 1
f 41//73 91//43 44//51
s 1
f 87//36 59//37 52//85
s 1
f 111//12 61//27 21//60
s 1
f 94//49 118//48 60//107
s 1
f 47//63 100//91 12//90
s 1
f 67//111 3//99 65//100
s 1
f 54//8 86//38 28//9
s 1
f 118//48 117//108 60//107
s 1
f 26//41 68//96 117//108
s 1
f 52//85 59//37 96//112
s 1
f 51//2 80//113 92//3
s 1
f 33//13 40//61 7//69
s 1
f 1//58 90//114 105//44
s 1
f 51//2 99//115 80//113
s 1
f 107//26 25//67 78//116
s 1
f 35//101 71//93 103//40
s 1
f 65//100 3//99 57//94
s 1
f 55//86 52//85 88//84
s 1
f 83//24 50//104 22//76
s 1
f 29//35 109//71 119//6
s 1
f 57//94 95//21 71//93
s 1
f 117//108 68//96 74//117
s 1
f 77//78 5//14 14//54
s 1
f 44//51 91//43 113//65
s 1
f 36//11 33//13 31//106
s 1
f 100//91 65//100 6//92
s 1
f 14//54 16//33 86//38
s 1
f 1//58 101//57 90//114
s 1
f 66//17 53//77 116//18
s 1
f 70//46 114//87 99//115
s 1
f 70//46 99//115 51//2
s 1
f 102//102 93//62 30//64
s 1
f 32//28 110//75 10//22
s 1
f 82//118 6//92 101//57
s 1
f 5//14 84//16 16//33
s 1
f 94//49 60//107 4//72
s 1
f 112//55 14//54 97//68
s 1
f 109//71 89//56 13//95
s 1
f 50//104 44//51 58//50
s 1
f 67//111 108//7 3//99
s 1
f 111//12 40//61 33//13
s 1
f 117//108 74//117 53//77
s 1
f 44//51 113//65 63//83
s 1
f 115//31 105//44 62//32
s 1
f 15//23 41//73 50//104
s 1
f 25//67 54//8 78//116
s 1
f 47//63 49//109 100//91
s 1
f 42//70 20//98 23//29
s 1
f 31//106 33//13 42//70
s 1
f 85//25 44//51 63//83
s 1
f 103//40 34//88 68//96
s 1
f 46//105 22//76 43//81
s 1
f 53//77 74//117 77//78
s 1
f 30//64 12//90 56//103
s 1
f 15//23 4//72 41//73
s 1
f 72//80 31//106 114//87
s 1
f 72//80 114//87 70//46
s 1
f 50//104 41//73 44//51
s 1
f 49//109 67//111 100//91
s 1
f 41//73 8//19 91//43
s 1
f 63//83 113//65 25//67
s 1
f 97//68 14//54 86//38
s 1
f 14//54 5//14 16//33
s 1
f 72//80 36//11 31//106
s 1
f 37//10 29//35 119//6
s 1
f 28//9 29//35 37//10
s 1
f 42//70 7//69 20//98
s 1
f 113//65 97//68 18//66
s 1
f 45//30 76//89 27//47
s 1
f 10//22 110//75 15//23
s 1
f 83//24 15//23 50//104
s 1
f 40//61 88//84 102//102
s 1
f 91//43 97//68 113//65
s 1
f 80//113 22//76 46//105
s 1
f 23//29 62//32 76//89
s 1
f 59//37 98//79 96//112
s 1
f 101//57 6//92 35//101
s 1
f 95//21 13//95 81//119
s 1
f 64//74 13//95 57//94
s 1
f 7//69 102//102 104//110
s 1
f 46//105 43//81 111//12
s 1
f 35//101 57//94 71//93
s 1
f 104//110 56//103 79//59
s 1
f 101//57 35//101 90//114
s 1
f 92//3 36//11 72//80
s 1
f 92//3 46//105 36//11
s 1
f 78//116 54//8 87//36
s 1
f 74//117 75//20 5//14
s 1
f 102//102 56//103 104//110
s 1
f 79//59 82//118 101//57
s 1
f 105//44 90//114 103//40
s 1
f 115//31 1//58 105//44
s 1
f 9//42 112//55 97//68
s 1
f 68//96 75//20 74//117
s 1
f 4//72 60//107 66//17
s 1
f 110//75 27//47 94//49
s 1
f 107//26 78//116 87//36
s 1
f 71//93 95//21 34//88
s 1
f 21//60 55//86 40//61
s 1
f 56//103 12//90 82//118
s 1
f 100//91 67//111 65//100
s 1
f 92//3 80//113 46//105
s 1
f 93//62 96//112 47//63
s 1
f 40//61 55//86 88//84
s 1
f 2//97 1//58 115//31
s 1
f 79//59 1//58 2//97
s 1
f 47//63 98//79 49//109
s 1
f 80//113 83//24 22//76
s 1
f 56//103 82//118 79//59
s 1
f 118//48 26//41 117//108
s 1
f 99//115 83//24 80//113
s 1
f 108//7 64//74 3//99
s 1
f 74//117 5//14 77//78
s 1
f 99//115 10//22 83//24
s 1
f 55//86 87//36 52//85
s 1
f 116//18 112//55 9//42
s 1
f 95//21 81//119 69//15
s 1
f 54//8 37//10 59//37
s 1
f 88//84 93//62 102//102
s 1
f 60//107 53//77 66//17
s 1
f 7//69 104//110 2//97
s 1
f 52//85 96//112 93//62
s 1
f 90//114 35//101 103//40
s 1
f 19//5 108//7 67//111
s 1
f 32//28 45//30 110//75
s 1
f 114//87 32//28 10//22
s 1
f 114//87 10//22 99//115
s 1
f 69//15 81//119 39//45
s 1
f 12//90 6//92 82//118
s 1
f 96//112 98//79 47//63
s 1
f 20//98 115//31 23//29
s 1
f 20//98 2//97 115//31
s 1
f 30//64 47//63 12//90
s 1
f 43//81 85//25 61//27
s 1
f 109//71 13//95 64//74
s 1
f 6//92 65//100 35//101
s 1
f 45//30 27//47 110//75
s 1
f 49//109 19//5 67//111
s 1
f 69//15 39//45 84//16
s 1
f 68//96 34//88 75//20
s 1
f 8//19 116//18 9//42
s 1
f 40//61 102//102 7//69
s 1
f 29//35 73//34 109//71
